<svg width="839" height="227" viewBox="0 0 839 227" fill="none" xmlns="http://www.w3.org/2000/svg">
<path d="M765.983 0C772.051 0 777.866 0.541765 783.428 1.6253C788.99 2.6366 793.902 4.40637 798.164 6.93461C802.426 9.46286 805.641 12.9302 807.808 17.3365C810.047 21.6707 810.769 27.1606 809.975 33.8062L805.641 75.1972C805.063 80.1092 805.677 84.2627 807.483 87.6578C809.361 91.0529 812.756 93.6172 817.668 95.3509C822.58 97.0845 829.478 97.9514 838.363 97.9514V112.471C829.551 112.471 822.652 113.374 817.668 115.18C812.756 116.913 809.361 119.478 807.483 122.873C805.677 126.268 805.063 130.457 805.641 135.442L809.975 176.616C810.697 183.262 809.975 188.751 807.808 193.086C805.641 197.492 802.426 200.959 798.164 203.487C793.975 206.016 789.063 207.785 783.428 208.797C777.866 209.88 772.051 210.422 765.983 210.422V196.119C771.257 196.119 776.024 195.614 780.286 194.602C784.62 193.591 787.979 191.821 790.363 189.293C792.747 186.765 793.722 183.262 793.288 178.783L788.738 134.358C788.087 127.929 788.449 122.764 789.821 118.864C791.194 114.891 793.65 111.857 797.189 109.762C800.801 107.667 805.532 106.222 811.383 105.428C805.749 104.489 801.126 102.863 797.514 100.552C793.975 98.2403 791.483 95.0981 790.038 91.1251C788.593 87.1522 788.16 82.1318 788.738 76.064L793.288 31.6392C793.722 27.2328 792.747 23.7655 790.363 21.2373C787.979 18.709 784.656 16.9392 780.394 15.9279C776.132 14.8444 771.329 14.3026 765.983 14.3026V0Z" fill="#F8F8F2"/>
<path d="M701.706 0V14.3026C696.433 14.3026 691.629 14.8444 687.295 15.9279C683.033 16.9392 679.71 18.709 677.327 21.2373C675.015 23.7655 674.04 27.2328 674.401 31.6392L678.952 76.064C679.602 82.1318 679.241 87.1522 677.868 91.1251C676.496 95.0981 674.184 98.2042 670.934 100.443C667.755 102.683 663.674 104.272 658.69 105.211C663.746 106.078 667.9 107.595 671.15 109.762C674.401 111.857 676.676 114.891 677.977 118.864C679.277 122.764 679.602 127.929 678.952 134.358L674.401 178.783C674.04 183.262 675.015 186.765 677.327 189.293C679.638 191.821 682.961 193.591 687.295 194.602C691.629 195.614 696.433 196.119 701.706 196.119V210.422C695.638 210.422 689.823 209.88 684.261 208.797C678.699 207.785 673.787 206.016 669.525 203.487C665.263 200.959 662.049 197.492 659.882 193.086C657.715 188.751 656.992 183.262 657.715 176.616L662.049 135.442C662.627 130.457 662.157 126.268 660.64 122.873C659.195 119.478 656.017 116.913 651.105 115.18C646.265 113.374 639.006 112.471 629.326 112.471V97.9514C639.006 97.9514 646.265 97.0845 651.105 95.3509C656.017 93.6172 659.195 91.0529 660.64 87.6578C662.157 84.2627 662.627 80.1092 662.049 75.1972L657.715 33.8062C656.992 27.1606 657.715 21.6707 659.882 17.3365C662.049 12.9302 665.227 9.46286 669.417 6.93461C673.679 4.40637 678.591 2.6366 684.153 1.6253C689.787 0.541765 695.638 0 701.706 0Z" fill="#F8F8F2"/>
<path d="M496.786 181.058V167.081H514.556V80.9398H496.786V66.9622H528.426L531.785 93.9422C536.191 84.5516 541.536 77.2919 547.821 72.1632C554.105 67.0345 562.412 64.4701 572.742 64.4701C575.92 64.4701 578.738 64.7229 581.194 65.2286C583.722 65.662 586.286 66.2399 588.887 66.9622L583.577 83.2152C581.194 82.5651 579.026 82.0956 577.076 81.8066C575.126 81.4454 572.886 81.2649 570.358 81.2649C561.618 81.2649 554.105 84.371 547.821 90.5832C541.536 96.7955 536.516 106.186 532.76 118.755V167.081H555.947V181.058H496.786ZM571.333 105.536V80.7231L573.175 66.9622H588.887L586.286 105.536H571.333Z" fill="#F8F8F2"/>
<path d="M409.213 64.5785C419.976 64.5785 428.97 67.0345 436.193 71.9465C443.489 76.7863 448.943 83.6487 452.554 92.5336C456.239 101.419 458.081 111.893 458.081 123.956C458.081 135.586 456.202 145.88 452.446 154.837C448.69 163.794 443.164 170.837 435.868 175.966C428.645 181.022 419.687 183.55 408.996 183.55C398.306 183.55 389.312 181.094 382.017 176.182C374.721 171.27 369.195 164.372 365.438 155.487C361.754 146.53 359.912 136.092 359.912 124.173C359.912 112.398 361.791 102.033 365.547 93.0754C369.303 84.1182 374.829 77.1475 382.125 72.1632C389.493 67.1067 398.522 64.5785 409.213 64.5785ZM409.213 79.4229C399.389 79.4229 391.949 83.0708 386.892 90.3666C381.908 97.5901 379.416 108.859 379.416 124.173C379.416 139.198 381.872 150.358 386.784 157.654C391.768 164.95 399.172 168.598 408.996 168.598C418.821 168.598 426.189 164.95 431.101 157.654C436.085 150.358 438.577 139.126 438.577 123.956C438.577 108.787 436.121 97.5901 431.209 90.3666C426.297 83.0708 418.965 79.4229 409.213 79.4229Z" fill="#F8F8F2"/>
<path d="M328.574 54.8265L334.209 71.9464C329.369 73.4633 324.204 74.4024 318.714 74.7635C313.224 75.1247 307.265 75.3053 300.836 75.3053C307.409 78.3392 312.357 82.276 315.68 87.1158C319.003 91.8834 320.664 97.5177 320.664 104.019C320.664 111.531 318.967 118.213 315.572 124.064C312.177 129.915 307.265 134.502 300.836 137.825C294.479 141.148 286.786 142.809 277.757 142.809C273.928 142.809 270.714 142.629 268.113 142.268C265.585 141.906 263.129 141.365 260.745 140.642C259.011 141.798 257.567 143.387 256.411 145.41C255.327 147.432 254.786 149.527 254.786 151.694C254.786 154.439 255.869 156.715 258.036 158.521C260.203 160.327 264.212 161.229 270.063 161.229H290.651C298.308 161.229 305.17 162.602 311.238 165.347C317.378 168.092 322.181 171.776 325.649 176.399C329.188 181.022 330.958 186.295 330.958 192.218C330.958 203.415 326.19 212.011 316.655 218.007C307.193 224.002 293.793 227 276.456 227C264.321 227 254.75 225.736 247.743 223.208C240.736 220.752 235.715 216.959 232.682 211.83C229.72 206.774 228.239 200.381 228.239 192.652H244.709C244.709 197.058 245.576 200.706 247.309 203.596C249.043 206.485 252.185 208.616 256.736 209.988C261.287 211.433 267.824 212.155 276.348 212.155C284.727 212.155 291.554 211.433 296.827 209.988C302.172 208.616 306.109 206.521 308.637 203.704C311.238 200.959 312.538 197.528 312.538 193.41C312.538 187.993 310.082 183.911 305.17 181.166C300.258 178.421 294.118 177.049 286.75 177.049H266.379C256.555 177.049 249.296 174.882 244.6 170.548C239.977 166.214 237.666 161.229 237.666 155.595C237.666 151.911 238.713 148.335 240.808 144.868C242.975 141.401 246.117 138.331 250.235 135.658C243.661 132.191 238.822 127.893 235.715 122.764C232.609 117.635 231.056 111.423 231.056 104.127C231.056 96.3981 232.971 89.5718 236.799 83.6485C240.627 77.653 245.973 72.9577 252.835 69.5626C259.698 66.1675 267.607 64.47 276.565 64.47C286.172 64.3977 293.973 64.0005 299.969 63.2781C305.965 62.4835 311.093 61.3639 315.355 59.9191C319.689 58.4744 324.096 56.7769 328.574 54.8265ZM276.565 77.7974C267.391 77.7974 260.601 80.2896 256.194 85.2738C251.86 90.1858 249.693 96.4703 249.693 104.127C249.693 111.856 251.932 118.213 256.411 123.197C260.89 128.182 267.752 130.674 276.998 130.674C285.088 130.674 291.228 128.326 295.418 123.631C299.68 118.936 301.811 112.398 301.811 104.019C301.811 95.4229 299.68 88.9217 295.418 84.5153C291.228 80.0367 284.944 77.7974 276.565 77.7974Z" fill="#F8F8F2"/>
<path d="M191.809 31.8558V46.9169H158.653V165.997H191.809V181.058H106.427V165.997H139.583V46.9169H106.427V31.8558H191.809Z" fill="#F8F8F2"/>
<path d="M0 164.372C0 160.832 0.830707 157.654 2.49212 154.837C4.15354 151.948 6.39284 149.672 9.21003 148.011C12.0994 146.277 15.35 145.41 18.9618 145.41C22.6458 145.41 25.9325 146.277 28.822 148.011C31.7114 149.672 33.9868 151.948 35.6482 154.837C37.3096 157.654 38.1404 160.832 38.1404 164.372C38.1404 167.912 37.3096 171.162 35.6482 174.124C33.9868 177.013 31.7114 179.325 28.822 181.058C25.9325 182.72 22.6458 183.551 18.9618 183.551C15.35 183.551 12.0994 182.72 9.21003 181.058C6.39284 179.325 4.15354 177.013 2.49212 174.124C0.830707 171.162 0 167.912 0 164.372Z" fill="#F8F8F2"/>
</svg>
