<svg width="210" height="57" viewBox="0 0 210 57" fill="none" xmlns="http://www.w3.org/2000/svg">
<path d="M191.87 0C193.39 0 194.846 0.135706 196.239 0.407117C197.633 0.660436 198.863 1.10374 199.931 1.73704C200.998 2.37033 201.803 3.23885 202.346 4.34259C202.907 5.42824 203.088 6.80339 202.889 8.46806L201.803 18.836C201.659 20.0664 201.812 21.1068 202.265 21.9572C202.735 22.8077 203.586 23.45 204.816 23.8843C206.046 24.3185 207.774 24.5356 210 24.5356V28.1726C207.793 28.1726 206.065 28.3987 204.816 28.8511C203.586 29.2854 202.735 29.9277 202.265 30.7781C201.812 31.6285 201.659 32.678 201.803 33.9265L202.889 44.2402C203.07 45.9048 202.889 47.28 202.346 48.3656C201.803 49.4694 200.998 50.3379 199.931 50.9712C198.881 51.6045 197.651 52.0478 196.239 52.3011C194.846 52.5725 193.39 52.7082 191.87 52.7082V49.1256C193.191 49.1256 194.385 48.9989 195.452 48.7456C196.538 48.4923 197.379 48.049 197.976 47.4157C198.574 46.7824 198.818 45.9048 198.709 44.783L197.569 33.6551C197.406 32.0447 197.497 30.751 197.841 29.7739C198.185 28.7787 198.8 28.0188 199.686 27.494C200.591 26.9693 201.776 26.6074 203.242 26.4084C201.831 26.1732 200.672 25.766 199.768 25.187C198.881 24.608 198.257 23.8209 197.895 22.8258C197.533 21.8306 197.425 20.573 197.569 19.0531L198.709 7.92523C198.818 6.82149 198.574 5.95297 197.976 5.31968C197.379 4.68638 196.547 4.24308 195.479 3.98976C194.412 3.71835 193.209 3.58264 191.87 3.58264V0Z" fill="#F8F8F2"/>
<path d="M175.769 0V3.58264C174.448 3.58264 173.245 3.71835 172.159 3.98976C171.092 4.24308 170.259 4.68638 169.662 5.31968C169.083 5.95297 168.839 6.82149 168.929 7.92523L170.069 19.0531C170.232 20.573 170.142 21.8306 169.798 22.8258C169.454 23.8209 168.875 24.599 168.061 25.1599C167.265 25.7208 166.242 26.1189 164.994 26.3541C166.261 26.5712 167.301 26.9512 168.115 27.494C168.929 28.0188 169.499 28.7787 169.825 29.7739C170.151 30.751 170.232 32.0447 170.069 33.6551L168.929 44.783C168.839 45.9048 169.083 46.7824 169.662 47.4157C170.241 48.049 171.074 48.4923 172.159 48.7456C173.245 48.9989 174.448 49.1256 175.769 49.1256V52.7082C174.249 52.7082 172.793 52.5725 171.399 52.3011C170.006 52.0478 168.776 51.6045 167.708 50.9712C166.641 50.3379 165.835 49.4694 165.292 48.3656C164.75 47.28 164.569 45.9048 164.75 44.2402L165.835 33.9265C165.98 32.678 165.862 31.6285 165.482 30.7781C165.121 29.9277 164.324 29.2854 163.094 28.8511C161.882 28.3987 160.063 28.1726 157.639 28.1726V24.5356C160.063 24.5356 161.882 24.3185 163.094 23.8843C164.324 23.45 165.121 22.8077 165.482 21.9572C165.862 21.1068 165.98 20.0664 165.835 18.836L164.75 8.46806C164.569 6.80339 164.75 5.42824 165.292 4.34259C165.835 3.23885 166.631 2.37033 167.681 1.73704C168.748 1.10374 169.979 0.660436 171.372 0.407117C172.783 0.135706 174.249 0 175.769 0Z" fill="#F8F8F2"/>
<path d="M124.439 45.3529V41.8517H128.89V20.2745H124.439V16.7733H132.364L133.206 23.5314C134.309 21.1792 135.648 19.3607 137.223 18.076C138.797 16.7914 140.878 16.149 143.465 16.149C144.261 16.149 144.967 16.2123 145.582 16.339C146.215 16.4476 146.858 16.5923 147.509 16.7733L146.179 20.8444C145.582 20.6816 145.039 20.564 144.551 20.4916C144.062 20.4011 143.501 20.3559 142.868 20.3559C140.679 20.3559 138.797 21.134 137.223 22.69C135.648 24.2461 134.391 26.5984 133.45 29.7468V41.8517H139.258V45.3529H124.439ZM143.112 26.4355V20.2202L143.574 16.7733H147.509L146.858 26.4355H143.112Z" fill="#F8F8F2"/>
<path d="M102.503 16.1761C105.199 16.1761 107.452 16.7913 109.261 18.0217C111.089 19.2341 112.455 20.953 113.359 23.1786C114.282 25.4042 114.744 28.0278 114.744 31.0495C114.744 33.9627 114.273 36.5411 113.332 38.7848C112.391 41.0284 111.007 42.7926 109.18 44.0773C107.37 45.3439 105.127 45.9772 102.449 45.9772C99.7708 45.9772 97.5181 45.362 95.6906 44.1316C93.863 42.9012 92.4788 41.1732 91.5379 38.9476C90.6151 36.7039 90.1537 34.0893 90.1537 31.1038C90.1537 28.1545 90.6242 25.558 91.5651 23.3143C92.506 21.0706 93.8902 19.3245 95.7177 18.076C97.5633 16.8094 99.8251 16.1761 102.503 16.1761ZM102.503 19.8945C100.042 19.8945 98.1785 20.8082 96.9119 22.6358C95.6634 24.4452 95.0392 27.2678 95.0392 31.1038C95.0392 34.8674 95.6544 37.6629 96.8848 39.4904C98.1333 41.3179 99.9879 42.2317 102.449 42.2317C104.91 42.2317 106.755 41.3179 107.986 39.4904C109.234 37.6629 109.858 34.8493 109.858 31.0495C109.858 27.2498 109.243 24.4452 108.013 22.6358C106.782 20.8082 104.946 19.8945 102.503 19.8945Z" fill="#F8F8F2"/>
<path d="M82.3039 13.7334L83.7152 18.0217C82.5029 18.4017 81.2092 18.6369 79.834 18.7274C78.4589 18.8179 76.9661 18.8631 75.3557 18.8631C77.0023 19.6231 78.2418 20.6092 79.0741 21.8215C79.9064 23.0157 80.3226 24.4271 80.3226 26.0555C80.3226 27.9373 79.8974 29.611 79.0469 31.0767C78.1965 32.5423 76.9661 33.6913 75.3557 34.5236C73.7635 35.3559 71.8364 35.7721 69.5747 35.7721C68.6157 35.7721 67.8105 35.7268 67.1591 35.6364C66.5258 35.5459 65.9106 35.4102 65.3135 35.2293C64.8792 35.5188 64.5174 35.9168 64.2279 36.4235C63.9564 36.9301 63.8207 37.4548 63.8207 37.9977C63.8207 38.6852 64.0921 39.2552 64.635 39.7076C65.1778 40.1599 66.182 40.3861 67.6476 40.3861H72.8045C74.7225 40.3861 76.4414 40.7299 77.9613 41.4174C79.4993 42.105 80.7026 43.0278 81.5711 44.1859C82.4577 45.3439 82.901 46.6648 82.901 48.1485C82.901 50.9531 81.7068 53.1063 79.3184 54.6081C76.948 56.1099 73.5916 56.8608 69.249 56.8608C66.2092 56.8608 63.8117 56.5441 62.0566 55.9109C60.3014 55.2957 59.0439 54.3457 58.2839 53.061C57.5421 51.7944 57.1711 50.1931 57.1711 48.257H61.2966C61.2966 49.3608 61.5137 50.2745 61.948 50.9983C62.3823 51.7221 63.1694 52.2558 64.3093 52.5996C65.4492 52.9615 67.0867 53.1424 69.2218 53.1424C71.3208 53.1424 73.0306 52.9615 74.3515 52.5996C75.6905 52.2558 76.6766 51.7311 77.3099 51.0254C77.9613 50.3379 78.287 49.4784 78.287 48.447C78.287 47.09 77.6718 46.0676 76.4414 45.3801C75.211 44.6925 73.673 44.3487 71.8274 44.3487H66.7248C64.264 44.3487 62.4456 43.8059 61.2695 42.7202C60.1114 41.6346 59.5324 40.3861 59.5324 38.9747C59.5324 38.0519 59.7948 37.1563 60.3195 36.2878C60.8623 35.4192 61.6494 34.6502 62.6808 33.9808C61.0342 33.1122 59.8219 32.0356 59.0439 30.751C58.2658 29.4663 57.8768 27.9102 57.8768 26.0827C57.8768 24.1466 58.3563 22.4367 59.3153 20.953C60.2743 19.4512 61.6133 18.2751 63.3322 17.4246C65.0511 16.5742 67.0324 16.149 69.2761 16.149C71.6826 16.1309 73.6368 16.0314 75.1386 15.8504C76.6404 15.6514 77.9251 15.3709 78.9927 15.0091C80.0783 14.6472 81.1821 14.222 82.3039 13.7334ZM69.2761 19.4874C66.9782 19.4874 65.2773 20.1116 64.1736 21.3601C63.0879 22.5905 62.5451 24.1647 62.5451 26.0827C62.5451 28.0187 63.106 29.611 64.2279 30.8595C65.3497 32.108 67.0686 32.7323 69.3847 32.7323C71.4112 32.7323 72.9492 32.1442 73.9987 30.9681C75.0662 29.792 75.6 28.1545 75.6 26.0555C75.6 23.9023 75.0662 22.2739 73.9987 21.1701C72.9492 20.0483 71.375 19.4874 69.2761 19.4874Z" fill="#F8F8F2"/>
<path d="M48.0459 7.97949V11.7521H39.7407V41.5803H48.0459V45.3529H26.6586V41.5803H34.9638V11.7521H26.6586V7.97949H48.0459Z" fill="#F8F8F2"/>
<path d="M0 41.1732C0 40.2866 0.208082 39.4904 0.624247 38.7848C1.04041 38.061 1.60133 37.491 2.307 37.0749C3.03077 36.6406 3.845 36.4235 4.74971 36.4235C5.67251 36.4235 6.49579 36.6406 7.21956 37.0749C7.94332 37.491 8.51329 38.061 8.92945 38.7848C9.34562 39.4904 9.5537 40.2866 9.5537 41.1732C9.5537 42.0598 9.34562 42.874 8.92945 43.6159C8.51329 44.3397 7.94332 44.9187 7.21956 45.3529C6.49579 45.7691 5.67251 45.9772 4.74971 45.9772C3.845 45.9772 3.03077 45.7691 2.307 45.3529C1.60133 44.9187 1.04041 44.3397 0.624247 43.6159C0.208082 42.874 0 42.0598 0 41.1732Z" fill="#F8F8F2"/>
</svg>
