<?xml version="1.0" encoding="utf-8"?>
<!-- Generator: Adobe Illustrator 27.6.0, SVG Export Plug-In . SVG Version: 6.00 Build 0)  -->
<svg version="1.1" id="Layer_1" xmlns="http://www.w3.org/2000/svg" xmlns:xlink="http://www.w3.org/1999/xlink" x="0px" y="0px"
	 viewBox="0 0 665.51 500" style="enable-background:new 0 0 665.51 500;" xml:space="preserve">
<style type="text/css">
	.st0{fill:#BEBEBE;}
</style>
<g>
	<g>
		<path class="st0" d="M106.68,117.96c-6.84-2.08-14.39-2.94-21.09,0.1c-5.55,2.52-9.75,7.68-10.16,13.86
			c-0.47,7.18,4.03,13.97,7.75,19.74c3.86,5.97,8.13,11.66,12.06,17.58c3.82,5.75,7.39,11.77,9.75,18.28
			c2.16,5.97,3.56,12.63,2.62,18.99c-0.44,2.99-1.49,5.97-3.63,8.17c-1.77,1.81-4.05,2.97-6.46,3.67
			c-5.62,1.63-11.83,1.18-17.54,0.26c-7.65-1.23-15.1-3.71-21.9-7.42c-5.54-3.02-12.49-8.54-9.72-15.73
			c0.49-1.26-0.54-2.74-1.75-3.08c-1.41-0.39-2.59,0.48-3.08,1.75c-2.59,6.73,1.35,13.75,6.6,17.86c5.58,4.37,12.54,7.27,19.28,9.31
			c6.55,1.98,13.57,3.18,20.43,3.09c6-0.08,12.29-1.37,16.9-5.44c5.17-4.57,6.4-11.91,6.05-18.48c-0.37-7.04-2.48-13.79-5.43-20.16
			c-6.19-13.36-16.29-24.32-23.47-37.09c-1.79-3.18-3.5-6.7-3.49-10.42c0-3.22,1.55-5.97,3.93-8.06c5.8-5.09,14.23-4.01,21.02-1.95
			C108.44,123.71,109.76,118.89,106.68,117.96L106.68,117.96z"/>
	</g>
</g>
<g>
	<g>
		<path class="st0" d="M128.15,138.36c1.22,20.35,3.87,40.62,7.95,60.6c0.57,2.78,1.16,5.55,1.78,8.31
			c0.32,1.42,0.65,2.84,0.98,4.26c0.15,0.63,0.3,1.26,0.45,1.89c0.08,0.31,0.15,0.63,0.23,0.94c0.16,0.63-0.05,0.47,0.23,0.02
			c0.3-0.3,0.6-0.6,0.9-0.9c0.06-0.02,0.13-0.05,0.19-0.07c0.64,0.08,1.28,0.17,1.93,0.25c-0.04-0.02-0.09-0.04-0.13-0.07
			c0.3,0.3,0.6,0.6,0.9,0.9c-0.02,0.6-0.05,1.2-0.07,1.8c-0.5,0.38-1,0.77-1.49,1.15c0.03-0.01,0.06-0.02,0.1-0.03
			c-0.64-0.08-1.28-0.17-1.93-0.25c0.04,0.03,0.09,0.05,0.13,0.08c2.8,1.59,5.32-2.73,2.52-4.32c-3.28-1.86-5.67,3.17-2.68,4.99
			c1.35,0.82,3.13,0.29,3.95-1.01c0.87-1.38,0.52-2.87,0.16-4.34c-1.41-5.83-2.69-11.68-3.86-17.56
			c-2.36-11.94-4.21-23.97-5.52-36.07c-0.74-6.84-1.31-13.71-1.73-20.58C132.96,135.16,127.96,135.14,128.15,138.36L128.15,138.36z"
			/>
	</g>
</g>
<g>
	<g>
		<path class="st0" d="M114.75,140.52c11.53-1.72,23.12-2.99,34.74-3.84c1.35-0.1,2.5-1.08,2.5-2.5c0-1.28-1.15-2.6-2.5-2.5
			c-12.07,0.88-24.1,2.23-36.07,4.02c-1.34,0.2-2.07,1.89-1.75,3.08C112.06,140.21,113.4,140.72,114.75,140.52L114.75,140.52z"/>
	</g>
</g>
<g>
	<g>
		<path class="st0" d="M162.16,207.75c1.57-18.7,3.14-37.39,4.71-56.09c0.44-5.29,0.89-10.59,1.33-15.88
			c-1.42,0.59-2.85,1.18-4.27,1.77c1.41,1.21,1.97,2.86,2.41,4.62c0.59,2.37,1.03,4.77,1.56,7.15c1.12,5.01,2.35,10,3.68,14.97
			c2.64,9.85,5.7,19.59,9.14,29.18c1.95,5.43,4.03,10.81,6.24,16.15c0.38-0.94,0.77-1.88,1.15-2.82c0.63-0.26,1.16-0.12,1.58,0.4
			c-1.65-2.76-5.98-0.24-4.32,2.52c1.12,1.86,3.37,2.44,5.26,1.39c0.87-0.48,1.56-1.84,1.15-2.82
			c-7.99-19.37-14.35-39.4-18.96-59.83c-0.6-2.65-1.07-5.35-1.76-7.98c-0.63-2.41-1.67-4.81-3.6-6.46c-1.7-1.46-4.08-0.44-4.27,1.77
			c-1.57,18.7-3.14,37.39-4.71,56.09c-0.44,5.29-0.89,10.59-1.33,15.88c-0.11,1.35,1.23,2.5,2.5,2.5
			C161.11,210.25,162.05,209.1,162.16,207.75L162.16,207.75z"/>
	</g>
</g>
<g>
	<g>
		<path class="st0" d="M166.95,186.48c4.16-1.86,8.33-3.72,12.49-5.57c1.2-0.53,1.57-2.37,0.9-3.42c-0.8-1.24-2.14-1.47-3.42-0.9
			c-4.16,1.86-8.33,3.72-12.49,5.57c-1.2,0.53-1.57,2.37-0.9,3.42C164.33,186.82,165.66,187.05,166.95,186.48L166.95,186.48z"/>
	</g>
</g>
<g>
	<g>
		<path class="st0" d="M191.77,143.78c0.73,5.2,2.29,10.21,4.53,14.95c2.18,4.6,5.1,9.27,8.78,12.82c1.88,1.81,4.18,3.3,6.85,3.5
			c2.42,0.18,4.78-0.86,6.42-2.61c3.21-3.41,4.01-8.56,3.47-13.06c-0.67-5.53-3.22-10.75-7.43-14.46c-1.79-1.58-4.91-0.09-4.18,2.43
			c4.99,17.16,9.98,34.35,13.61,51.86c1.79,8.61,3.25,17.3,4.17,26.05c0.47,4.45,0.8,8.91,0.99,13.37
			c0.14,3.36,0.23,6.75-0.23,10.09c-0.8,5.75-3.53,12.05-10.08,12.71c-7.15,0.72-14.08-4.19-18.65-9.22
			c-4.66-5.13-7.55-11.81-7.32-18.8c0.22-6.65,3.3-13.16,8.88-16.94c5.59-3.77,12.49-4.83,19.11-4.48
			c8.11,0.43,15.77,3.51,23.8,4.55c2.14,0.28,4.28,0.4,6.43,0.31c3.21-0.14,3.22-5.14,0-5c-9.07,0.38-17.62-3.36-26.51-4.52
			c-7.43-0.97-15.25-0.28-22.07,2.96c-7.03,3.34-12.11,9.75-13.87,17.32c-1.82,7.83-0.25,16.04,3.99,22.82
			c4.18,6.7,10.76,12.41,18.31,14.92c3.86,1.28,8.3,1.65,12.15,0.15c3.41-1.32,6.18-3.79,7.95-6.99c3.64-6.57,3.4-14.54,3.03-21.81
			c-0.48-9.55-1.65-19.06-3.28-28.47c-3.23-18.72-8.3-37.06-13.58-55.3c-0.67-2.31-1.34-4.62-2.01-6.92
			c-1.39,0.81-2.79,1.62-4.18,2.43c2.88,2.53,4.83,5.81,5.69,9.55c0.76,3.3,0.73,7.3-1.2,10.21c-4.7,7.12-13.01-8.43-14.64-11.82
			c-2.1-4.39-3.44-9.13-4.12-13.95c-0.19-1.34-1.89-2.07-3.08-1.75C192.08,141.1,191.58,142.44,191.77,143.78L191.77,143.78z"/>
	</g>
</g>
<g>
	<g>
		<path class="st0" d="M284.99,199.59c0.4-20.47,0.8-40.95,1.2-61.42c0.11-5.61,0.07-11.28,0.87-16.85
			c-0.58,0.58-1.16,1.16-1.75,1.75c-0.47,0.15-0.77-0.51-0.22,0.18c0.33,0.41,0.56,0.95,0.8,1.41c0.58,1.1,1.13,2.2,1.66,3.32
			c0.97,2.03,1.86,4.1,2.69,6.2c1.73,4.4,3.2,8.9,4.54,13.43c2.69,9.14,4.82,18.42,7.42,27.58c1.48,5.2,3.12,10.36,5.08,15.4
			c1.22-0.94,2.45-1.88,3.67-2.82c-0.57-0.41-1.14-0.82-1.71-1.23c-1.1-0.79-2.78-0.19-3.42,0.9c-0.74,1.26-0.2,2.63,0.9,3.42
			c0.57,0.41,1.14,0.82,1.71,1.23c1.71,1.23,4.44-0.83,3.67-2.82c-7.38-19.03-10.01-39.56-17.85-58.43
			c-1.11-2.68-2.31-5.33-3.63-7.92c-1.3-2.53-3.28-5.71-6.64-4.66c-0.76,0.23-1.62,0.9-1.75,1.75c-0.72,5.04-0.89,10.1-0.99,15.18
			c-0.1,5.24-0.21,10.49-0.31,15.73c-0.2,10.32-0.4,20.64-0.61,30.96c-0.12,5.91-0.23,11.82-0.35,17.73
			C279.93,202.81,284.93,202.81,284.99,199.59L284.99,199.59z"/>
	</g>
</g>
<g>
	<g>
		<path class="st0" d="M284.14,172.57c6.82-0.99,13.65-1.97,20.47-2.96c1.34-0.19,2.07-1.89,1.75-3.08
			c-0.39-1.44-1.73-1.94-3.08-1.75c-6.82,0.99-13.65,1.97-20.47,2.96c-1.34,0.19-2.07,1.89-1.75,3.08
			C281.46,172.26,282.8,172.76,284.14,172.57L284.14,172.57z"/>
	</g>
</g>
<g>
	<g>
		<path class="st0" d="M306.25,153.03c7.25,6.89,9.73,17.08,15,25.33c2.06,3.22,8.25,12.46,12.65,7.81
			c2.07-2.19,2.71-5.55,3.48-8.35c0.83-3.01,1.82-5.98,2.96-8.9c2.52-6.46,5.85-12.59,9.76-18.31c1.52-2.22-1.36-4.45-3.42-3.42
			c-1.17,0.59-1.83,1.56-2.28,2.75c-0.47,1.26,0.53,2.74,1.75,3.08c1.4,0.39,2.6-0.48,3.08-1.75c-0.45,0.43-0.45,0.51-0.02,0.24
			c-1.14-1.14-2.28-2.28-3.42-3.42c-3.28,4.79-6.13,9.87-8.47,15.19c-1.23,2.79-2.35,5.62-3.31,8.51c-0.9,2.69-1.54,5.46-2.41,8.16
			c-0.17,0.52-0.35,1.04-0.58,1.54c-0.13,0.28-0.42,0.62-0.5,0.91c-0.04,0.06-0.07,0.12-0.11,0.18c-0.21,0.36,0.14,0.35,1.04-0.05
			c-0.11-0.25-0.85-0.68-1.07-0.88c-0.47-0.43-0.93-0.88-1.37-1.35c-1.5-1.58-2.76-3.35-3.89-5.21c-2.46-4.02-4.32-8.37-6.41-12.58
			c-2.34-4.73-5.05-9.35-8.9-13.01C307.45,147.28,303.91,150.81,306.25,153.03L306.25,153.03z"/>
	</g>
</g>
<g>
	<g>
		<path class="st0" d="M326.51,152.49c9.55,9.91,19.41,19.51,29.57,28.79c1.25,1.14,3.87,0.88,4.18-1.1c1.72-11,3.44-22,5.17-32.99
			c0.21-1.33-0.34-2.69-1.75-3.08c-1.19-0.33-2.87,0.4-3.08,1.75c-1.72,11-3.44,22-5.17,32.99c1.39-0.37,2.79-0.74,4.18-1.1
			c-10.16-9.28-20.02-18.88-29.57-28.79C327.81,146.64,324.28,150.18,326.51,152.49L326.51,152.49z"/>
	</g>
</g>
<g>
	<g>
		<path class="st0" d="M367.85,167.9c3.65-1.72,7.22-3.62,10.66-5.74c1.69-1.04,3.35-2.12,4.97-3.25c1.51-1.04,3.21-2.07,4.44-3.45
			c2.62-2.93,2.37-6.98-0.11-9.92c-2.55-3.03-6.91-3.47-10.54-2.59c-3.56,0.87-6.86,2.99-8.78,6.16c-1.78,2.93-2.34,6.57-1.94,9.95
			c0.45,3.78,1.98,7.27,3.98,10.48c2.03,3.25,4.35,6.58,6.95,9.4c2.9,3.13,7.31,5.52,11.67,4.25c3.82-1.11,6.66-5.37,5.28-9.31
			c-0.45-1.27-1.71-2.12-3.08-1.75c-1.24,0.34-2.19,1.8-1.75,3.08c0.59,1.68-0.89,3.22-2.69,3.31c-2.67,0.14-4.85-1.87-6.46-3.76
			c-1.87-2.18-3.56-4.61-5.13-7.01c-1.59-2.44-2.99-5.03-3.61-7.9c-1.01-4.66,0.5-9.59,5.13-11.53c2.08-0.87,5.12-1.43,6.97,0.24
			c0.56,0.51,0.95,1.25,1.02,1.97c0.1,1-0.66,1.68-1.42,2.29c-5.45,4.33-11.81,7.79-18.09,10.74c-1.22,0.57-1.53,2.33-0.9,3.42
			C365.16,168.25,366.62,168.47,367.85,167.9L367.85,167.9z"/>
	</g>
</g>
<g>
	<g>
		<path class="st0" d="M415.93,118.13c-8.59-3.1-18.34,3.55-19.1,12.47c-0.46,5.33,2.23,10.45,5.37,14.56
			c3.28,4.29,7.15,8.08,11.07,11.77c3.84,3.6,7.77,7.12,11.42,10.91c3.49,3.62,6.8,7.46,8.99,12.02c1.87,3.91,2.96,8.84,0.81,12.87
			c-1.82,3.41-5.3,5.25-8.96,6.06c-8.68,1.92-23.28-2.23-22.09-13.42c0.14-1.34-1.25-2.5-2.5-2.5c-1.47,0-2.36,1.15-2.5,2.5
			c-0.57,5.33,2.25,10.52,6.37,13.75c4.11,3.21,9.35,4.75,14.51,5.08c9.01,0.58,19.43-3.7,21.08-13.55
			c1.81-10.78-6.19-20.33-13.23-27.44c-3.81-3.85-7.87-7.43-11.78-11.17c-3.81-3.64-7.76-7.42-10.62-11.88
			c-2.6-4.05-4.47-9.49-1.29-13.72c2.59-3.44,7.21-4.9,11.12-3.49c1.27,0.46,2.74-0.52,3.08-1.75
			C418.06,119.81,417.2,118.59,415.93,118.13L415.93,118.13z"/>
	</g>
</g>
<g>
	<g>
		<path class="st0" d="M426.96,140.96c-1.93,8.62,1.14,17.55,6.38,24.43c4.75,6.24,12.33,11.9,20.6,10.99
			c7.63-0.84,13.19-6.86,15.1-14.07c2.07-7.78-0.5-15.79-5.03-22.2c-2.42-3.43-5.29-6.53-8.44-9.3c-3.21-2.82-6.81-5.36-10.96-6.56
			c-4.12-1.19-8.87-0.97-12.61,1.27c-3.66,2.19-5.97,6.08-7.05,10.13c-2.14,8.06,0.53,16.53,7.09,21.67
			c5.86,4.59,13.55,6.37,20.84,4.98c16.58-3.16,27.65-19.97,30.85-35.5c0.46-2.23,0.77-4.49,0.97-6.76c0.12-1.35-1.23-2.5-2.5-2.5
			c-1.45,0-2.38,1.15-2.5,2.5c-1.22,13.92-8.67,28.82-21.6,35.25c-5.47,2.72-11.63,3.26-17.4,1.21c-5.41-1.92-9.94-6.2-11.18-11.91
			c-1.38-6.34,1.4-15.27,8.82-16c7.16-0.71,13.24,4.86,17.77,9.71c4.5,4.81,8.54,11.02,8.69,17.82c0.11,5.4-2.34,11.31-7.22,14.02
			c-5.77,3.2-12.47,0.09-16.88-4c-5.04-4.68-8.93-11.58-9.34-18.54c-0.11-1.8,0.01-3.57,0.4-5.33
			C432.49,139.16,427.67,137.82,426.96,140.96L426.96,140.96z"/>
	</g>
</g>
<g>
	<g>
		<path class="st0" d="M490.01,125.6c2.33,8.37,4.38,16.81,6.12,25.33c0.87,4.25,1.67,8.53,2.39,12.81c0.35,2.06,0.68,4.13,0.99,6.2
			c0.17,1.11,0.33,2.23,0.49,3.34c0.13,0.9,0.39,1.88,0.29,2.79c0.11-0.42,0.23-0.84,0.34-1.26c-0.04,0.08-0.07,0.16-0.11,0.24
			c0.3-0.3,0.6-0.6,0.9-0.9c-0.07,0.05-0.14,0.1-0.21,0.14c0.42-0.11,0.84-0.23,1.26-0.34c-0.05,0-0.1-0.01-0.15-0.01
			c0.72,0.41,1.44,0.83,2.16,1.24c0.05,0.11,0.09,0.22,0.14,0.33c0,0.44,0,0.89,0,1.33c0.01-0.05,0.02-0.1,0.03-0.14
			c-0.21,0.37-0.43,0.74-0.64,1.1c0.02-0.02,0.05-0.05,0.07-0.07c-1.01,0.13-2.02,0.26-3.03,0.39c0.04,0.02,0.07,0.03,0.11,0.05
			c1.22,0.57,2.7,0.34,3.42-0.9c0.63-1.08,0.33-2.85-0.9-3.42c-0.04-0.02-0.07-0.03-0.11-0.05c-1-0.47-2.21-0.46-3.03,0.39
			c-1.59,1.66-0.66,4.68,1.78,4.76c2.42,0.08,3.13-2.31,2.87-4.27c-0.56-4.18-1.19-8.34-1.89-12.5c-1.37-8.09-3-16.13-4.9-24.11
			c-1.1-4.62-2.29-9.21-3.56-13.78C493.97,121.18,489.15,122.49,490.01,125.6L490.01,125.6z"/>
	</g>
</g>
<g>
	<g>
		<path class="st0" d="M489.46,124.95c2.76,3.34,5.51,6.69,8.27,10.03c2.76,3.35,5.4,6.86,8.32,10.07c2.48,2.73,7.12,4.78,9.78,1.07
			c1.13-1.58,1.31-3.72,1.65-5.58c0.38-2.11,0.7-4.24,0.98-6.36c0.67-4.95,1.09-9.93,1.26-14.93c-1.55,0.42-3.11,0.84-4.66,1.26
			c8.09,13.8,6.56,30.72,9.28,45.96c0.38,2.13,0.84,4.25,1.41,6.34c0.3,1.11,0.64,2.2,1.01,3.29c0.18,0.51,0.36,1.02,0.55,1.52
			c0.07,0.19,0.15,0.38,0.22,0.57c0.07,0.17,0.13,0.34,0.18,0.51c0.1,0.4,0.14,0.23,0.11-0.53c0.3-0.3,0.6-0.6,0.9-0.9
			c0.33-0.03,0.67-0.06,1-0.09c0.37,0.21,0.74,0.43,1.1,0.64c-0.06-0.05-0.11-0.09-0.17-0.14c0.21,0.37,0.43,0.74,0.64,1.1
			c-0.03-0.07-0.06-0.14-0.09-0.21c-0.51-1.25-1.66-2.13-3.08-1.75c-1.18,0.32-2.26,1.82-1.75,3.08c0.52,1.26,1.43,2.22,2.89,2.24
			c1.44,0.02,2.82-0.87,3.26-2.26c0.71-2.21-0.88-4.78-1.52-6.87c-1.3-4.26-2.1-8.68-2.64-13.1c-1.14-9.2-1.42-18.54-3.48-27.6
			c-1.14-5.01-2.91-9.9-5.52-14.35c-1.28-2.19-4.58-1.18-4.66,1.26c-0.16,4.82-0.54,9.63-1.19,14.41c-0.33,2.42-0.73,4.83-1.18,7.23
			c-0.12,0.63-0.16,1.93-0.62,2.42c0.26-0.28,0.08-0.11,0.25-0.11c-0.31-0.01-0.61-0.21-0.85-0.36c-1.67-1.01-2.85-2.91-4.07-4.39
			c-1.56-1.89-3.12-3.79-4.68-5.68c-3.12-3.79-6.24-7.57-9.36-11.36c-0.86-1.04-2.65-0.89-3.54,0
			C488.43,122.44,488.6,123.9,489.46,124.95L489.46,124.95z"/>
	</g>
</g>
<g>
	<g>
		<path class="st0" d="M529.76,157.18c6.32,0.15,12.66-0.49,18.82-1.91c4.92-1.14,10.45-2.63,14.06-6.41
			c3.47-3.63,3.94-9.01,0.6-12.89c-3.06-3.56-8.25-4.92-12.74-3.87c-4.96,1.16-9.12,4.87-11.56,9.25
			c-2.91,5.24-3.31,11.35-2.41,17.18c0.88,5.76,2.9,11.79,6.61,16.35c3.52,4.33,9.06,6.98,14.66,5.89
			c5.61-1.09,9.85-5.99,12.21-10.92c2.78-5.8,3.6-12.37,6.85-17.96c1.62-2.79-2.7-5.31-4.32-2.52c-2.57,4.41-3.76,9.37-5.37,14.16
			c-1.33,3.93-3.22,7.98-6.61,10.57c-3.21,2.44-7.12,2.47-10.51,0.35c-3.94-2.47-5.99-7-7.31-11.28c-2.53-8.17-2.89-19.15,5.15-24.5
			c2.93-1.95,6.4-2.66,9.55-0.98c2.79,1.49,4.2,4.29,2.19,7.03c-2.59,3.52-7.94,4.67-11.92,5.62c-5.89,1.4-11.9,1.98-17.95,1.84
			C526.54,152.1,526.55,157.1,529.76,157.18L529.76,157.18z"/>
	</g>
</g>
<g>
	<g>
		<path class="st0" d="M594.32,179.85c-0.4,10.35-5.59,20.05-13.76,26.37c-1.07,0.83-0.87,2.67,0,3.54c1.06,1.06,2.46,0.83,3.54,0
			c9.19-7.11,14.78-18.33,15.22-29.91C599.44,176.63,594.44,176.64,594.32,179.85L594.32,179.85z"/>
	</g>
</g>
<g>
	<g>
		<path class="st0" d="M224.26,288.03c-0.18,19.43-0.47,38.86-0.53,58.28c-0.02,5.35,0.1,10.69,0.74,16.01
			c0.16,1.34,1.03,2.5,2.5,2.5c1.23,0,2.66-1.15,2.5-2.5c-1.14-9.48-0.72-19.09-0.63-28.62c0.09-9.73,0.18-19.47,0.27-29.2
			c0.05-5.49,0.1-10.98,0.15-16.47C229.29,284.81,224.29,284.81,224.26,288.03L224.26,288.03z"/>
	</g>
</g>
<g>
	<g>
		<path class="st0" d="M226.98,293.71c8.18-2.88,16.99-3.29,25.38-1.07c3.11,0.82,4.44-4,1.33-4.82c-9.2-2.44-19.05-2.1-28.04,1.07
			c-1.27,0.45-2.12,1.71-1.75,3.08C224.25,293.2,225.7,294.16,226.98,293.71L226.98,293.71z"/>
	</g>
</g>
<g>
	<g>
		<path class="st0" d="M225.74,318.72c8.61,1.23,17.22,1.17,25.81-0.19c1.33-0.21,2.08-1.88,1.75-3.08
			c-0.39-1.42-1.74-1.96-3.08-1.75c-7.63,1.21-15.51,1.28-23.15,0.19c-1.33-0.19-2.69,0.33-3.08,1.75
			C223.67,316.82,224.39,318.53,225.74,318.72L225.74,318.72z"/>
	</g>
</g>
<g>
	<g>
		<path class="st0" d="M263.96,290.63c-4.13,7.94-3.99,17.08-2.07,25.63c1.77,7.84,4.79,16.42,11.02,21.85
			c5.63,4.91,14.8,7.06,21.31,2.5c6.38-4.47,8.42-13.57,8.29-20.94c-0.25-14.21-9.01-28.64-22.53-33.83
			c-4.16-1.6-9.02-1.53-12.31,1.81c-2.82,2.85-3.96,7.16-3.64,11.09c0.33,4.01,1.92,7.82,4.64,10.8c2.79,3.07,6.78,4.93,10.81,5.68
			c8.26,1.54,17.74,0,24.56-5.08c6.13-4.57,10.45-11.51,11.54-19.11c0.27-1.9,0.38-3.8,0.26-5.71c-0.09-1.35-1.09-2.5-2.5-2.5
			c-1.29,0-2.59,1.15-2.5,2.5c0.4,6.18-1.69,12.39-5.74,17.08c-4.63,5.36-11.11,7.99-18.13,8.33c-6.58,0.32-13.83-1.39-16.82-7.9
			c-2.13-4.62-1.42-14.02,5.66-12.97c3.17,0.47,6.22,2.32,8.76,4.19c2.27,1.67,4.33,3.75,6.04,5.99c3.51,4.62,5.84,10.16,6.64,15.91
			c0.82,5.8,0.1,12.51-3.06,17.56c-3.36,5.37-10.27,5.6-15.4,2.7c-5.97-3.37-8.93-10.34-10.83-16.59
			c-2.08-6.86-3.37-14.39-1.57-21.46c0.44-1.74,1.06-3.4,1.89-5C269.76,290.3,265.45,287.77,263.96,290.63L263.96,290.63z"/>
	</g>
</g>
<g>
	<g>
		<path class="st0" d="M325.49,285.3c0.55,14.43,1.09,28.86,1.64,43.29c0.27,7.21,0.55,14.43,0.82,21.64
			c0.13,3.52,0.16,7.07,0.4,10.59c0.12,1.79,0.64,3.39,2.17,4.47c1.22,0.86,2.73,1.13,4.17,1.42c7.81,1.54,15.76,1.58,23.59,0.24
			c1.33-0.23,2.08-1.87,1.75-3.08c-0.39-1.41-1.74-1.98-3.08-1.75c-6.26,1.07-12.78,1.14-19.06,0.1c-1.44-0.24-2.85-0.56-4.26-0.9
			c-0.14-0.03,0.04,0.18-0.32-0.17c0.23,0.22,0.01,0.18,0.03-0.24c0.03-0.66-0.04-1.33-0.07-1.99c-0.13-3.48-0.26-6.97-0.4-10.45
			c-0.51-13.43-1.02-26.87-1.53-40.3c-0.29-7.63-0.58-15.26-0.87-22.89C330.37,282.09,325.37,282.08,325.49,285.3L325.49,285.3z"/>
	</g>
</g>
<g>
	<g>
		<path class="st0" d="M359.23,291.43c2.17,20.03,3.82,40.12,4.91,60.24c0.31,5.77,0.58,11.55,0.81,17.32c0.13,3.21,5.13,3.22,5,0
			c-0.79-20.13-2.11-40.25-3.98-60.31c-0.54-5.76-1.12-11.51-1.74-17.25c-0.15-1.34-1.04-2.5-2.5-2.5
			C360.49,288.93,359.08,290.07,359.23,291.43L359.23,291.43z"/>
	</g>
</g>
<g>
	<g>
		<path class="st0" d="M367.28,330.32c11.09-10.4,21.19-21.81,30.24-34.02c0.8-1.09,0.18-2.79-0.9-3.42
			c-1.27-0.74-2.61-0.19-3.42,0.9c-8.79,11.87-18.69,22.91-29.46,33.01C361.39,328.99,364.93,332.52,367.28,330.32L367.28,330.32z"
			/>
	</g>
</g>
<g>
	<g>
		<path class="st0" d="M362.64,330.66c4.14,4.44,9.47,7.44,14.86,10.11c2.67,1.32,5.37,2.59,8.01,4c1.31,0.7,2.6,1.43,3.86,2.22
			c0.84,0.52,2.54,1.22,2.75,2.27c0.27,1.32,1.84,2.09,3.08,1.75c1.38-0.38,2.01-1.75,1.75-3.08c-0.64-3.17-4.48-4.98-7.04-6.44
			c-2.76-1.57-5.63-2.94-8.48-4.34c-5.49-2.69-11.02-5.49-15.24-10.01C363.98,324.76,360.45,328.31,362.64,330.66L362.64,330.66z"/>
	</g>
</g>
<g>
	<g>
		<path class="st0" d="M425.66,283.71c-8.53,1.5-15.89,8.79-17.4,17.34c-1.84,10.39,4.05,19.8,10.41,27.45
			c5.78,6.96,13.04,13.89,14.66,23.18c0.61,3.48,0.36,7.44-1.24,10.64c-1.78,3.56-4.99,5.75-8.91,6.4c-4.79,0.79-9.9-0.65-14.3-2.44
			c-4.29-1.75-8.54-4.27-10.45-8.68c-0.54-1.24-2.35-1.52-3.42-0.9c-1.28,0.75-1.44,2.18-0.9,3.42c1.85,4.27,5.71,7.29,9.77,9.34
			c4.32,2.18,9.02,3.72,13.83,4.27c4.74,0.54,9.84-0.21,13.76-3.1c3.48-2.57,5.76-6.37,6.63-10.6c0.87-4.24,0.59-8.73-0.72-12.86
			c-1.51-4.77-4.31-8.98-7.36-12.89c-6.09-7.82-14.22-14.94-16.6-24.96c-1.13-4.77-0.35-9.57,2.42-13.63
			c2.59-3.79,6.65-6.37,11.15-7.16c1.33-0.23,2.08-1.86,1.75-3.08C428.35,284.05,426.99,283.47,425.66,283.71L425.66,283.71z"/>
	</g>
</g>
<g>
	<g>
		<path class="st0" d="M477.46,307.17c-2-4.18-6.42-6.45-10.84-7.14c-4.49-0.71-10.46-0.85-14.1,2.31
			c-4.42,3.84-2.15,10.12,0.4,14.29c2.87,4.68,6.2,9.1,9.87,13.18c4.16,4.62,8.81,8.74,13.81,12.42c1.09,0.8,2.79,0.18,3.42-0.9
			c0.74-1.27,0.19-2.62-0.9-3.42c-7.36-5.41-13.88-12.07-19.11-19.56c-1.3-1.86-2.6-3.77-3.67-5.77c-0.79-1.48-1.67-3.41-1.3-5.12
			c0.71-3.31,6.53-2.91,9.02-2.74c3.63,0.26,7.42,1.52,9.07,4.97c0.58,1.22,2.32,1.54,3.42,0.9
			C477.81,309.86,478.05,308.39,477.46,307.17L477.46,307.17z"/>
	</g>
</g>
<g>
	<g>
		<path class="st0" d="M476.94,310.75c1.93-2.22,3.93-4.38,6.01-6.45c1.82-1.81,3.66-3.72,5.78-5.18c1.84-1.26,4.1-2.39,6.35-1.59
			c1.79,0.63,3.18,2.24,3.91,3.95c1.88,4.42,0.34,9.94-1.21,14.23c-1.51,4.19-3.83,8.16-6.69,11.57c-3.37,4-7.43,7.28-12.07,9.69
			c-2.86,1.48-0.33,5.8,2.52,4.32c9.67-5.01,17.15-13.71,20.93-23.89c2-5.38,3.46-11.99,1.24-17.51c-2.28-5.66-8.22-9.2-14.18-6.84
			c-3.29,1.3-5.93,3.69-8.45,6.1c-2.69,2.57-5.24,5.27-7.67,8.07c-0.88,1.02-1,2.53,0,3.54
			C474.31,311.65,476.05,311.77,476.94,310.75L476.94,310.75z"/>
	</g>
</g>
</svg>
